<?xml version="1.0" encoding="utf-8"?>
<svg style="display: none" viewBox="0 0 80 80" xmlns="http://www.w3.org/2000/svg" xmlns:xlink="http://www.w3.org/1999/xlink">
  <style>
    :root>svg {
      display: none
    }

    :root>svg:target {
      display: block
    }
  </style><svg viewBox="0 0 14 14" id="addsvg" xmlns="http://www.w3.org/2000/svg">
    <path
      d="M7 3.667c-.367 0-.667.3-.667.666v2h-2c-.366 0-.666.3-.666.667 0 .367.3.667.666.667h2v2c0 .366.3.666.667.666.367 0 .667-.3.667-.666v-2h2c.366 0 .666-.3.666-.667 0-.367-.3-.667-.666-.667h-2v-2c0-.366-.3-.666-.667-.666ZM7 .333A6.67 6.67 0 0 0 .333 7 6.67 6.67 0 0 0 7 13.667 6.67 6.67 0 0 0 13.667 7 6.67 6.67 0 0 0 7 .333Zm0 12A5.34 5.34 0 0 1 1.667 7 5.34 5.34 0 0 1 7 1.667 5.34 5.34 0 0 1 12.333 7 5.34 5.34 0 0 1 7 12.333Z" />
  </svg><svg viewBox="0 0 12 12" id="arr2svg" xmlns="http://www.w3.org/2000/svg">
    <g clip-path="url(#ba)">
      <path
        d="M1.495 3.69a.625.625 0 0 0 0 .885L5.65 8.73c.195.195.51.195.705 0l4.155-4.155a.625.625 0 1 0-.885-.885L6 7.31 2.375 3.685a.623.623 0 0 0-.88.005Z" />
    </g>
    <defs>
      <clipPath id="ba">
        <path transform="rotate(-90 6 6)" d="M0 0h12v12H0z" />
      </clipPath>
    </defs>
  </svg><svg viewBox="0 0 8 8" id="arrowsvg" xmlns="http://www.w3.org/2000/svg">
    <path d="m0 4 .705.705L3.5 1.915V8h1V1.915L7.29 4.71 8 4 4 0 0 4Z" />
  </svg><svg viewBox="0 0 13 13" id="c-loadsvg" fill="none" xmlns="http://www.w3.org/2000/svg">
    <path d="M1 6.04a5.04 5.04 0 1 0 3.196-4.692" stroke="#9873FF" stroke-width="2" stroke-miterlimit="10"
      stroke-linecap="round" />
  </svg><svg viewBox="0 0 23 16" id="clientsvg" xmlns="http://www.w3.org/2000/svg">
    <path
      d="M14.5 8c2.21 0 4-1.79 4-4s-1.79-4-4-4-4 1.79-4 4 1.79 4 4 4Zm-9-2V3h-2v3h-3v2h3v3h2V8h3V6h-3Zm9 4c-2.67 0-8 1.34-8 4v2h16v-2c0-2.66-5.33-4-8-4Z" />
  </svg><svg viewBox="0 0 17 17" id="closesvg" xmlns="http://www.w3.org/2000/svg">
    <path fill-rule="evenodd" clip-rule="evenodd"
      d="m16.233 1.733-.966-.966L8.5 7.533 1.733.767l-.966.966L7.533 8.5.767 15.267l.966.966L8.5 9.467l6.767 6.766.966-.966L9.467 8.5l6.766-6.767Z" />
  </svg><svg viewBox="0 0 16 16" id="fbsvg" xmlns="http://www.w3.org/2000/svg">
    <path
      d="M8 0C3.6 0 0 3.606 0 8.048c0 4.016 2.928 7.35 6.752 7.952v-5.623H4.72V8.048h2.032V6.273c0-2.016 1.192-3.124 3.024-3.124.872 0 1.784.152 1.784.152v1.984h-1.008c-.992 0-1.304.619-1.304 1.253v1.51h2.224l-.36 2.33H9.248V16a7.992 7.992 0 0 0 4.84-2.723A8.051 8.051 0 0 0 16 8.048C16 3.606 12.4 0 8 0Z" />
  </svg><svg viewBox="0 0 13 13" fill="none" id="loadsvg" xmlns="http://www.w3.org/2000/svg">
    <path d="M1 6.04a5.04 5.04 0 1 0 3.196-4.692" stroke="#B89EFF" stroke-width="2" stroke-miterlimit="10"
      stroke-linecap="round" />
  </svg><svg viewBox="0 0 50 50" id="logosvg" xmlns="http://www.w3.org/2000/svg">
    <circle cx="25" cy="25" r="25" />
    <path
      d="M17.262 29.082c0 1.008-.352 1.775-1.055 2.303-.697.527-1.743.79-3.138.79-.715 0-1.324-.049-1.828-.149a6.734 6.734 0 0 1-1.415-.422V29.39c.498.234 1.058.43 1.679.588.627.159 1.178.238 1.652.238.973 0 1.46-.281 1.46-.844a.69.69 0 0 0-.194-.51c-.13-.134-.352-.284-.668-.448-.317-.17-.738-.366-1.266-.589-.756-.316-1.312-.61-1.67-.879a2.542 2.542 0 0 1-.773-.923c-.158-.351-.237-.782-.237-1.292 0-.873.337-1.546 1.01-2.021.68-.48 1.641-.72 2.883-.72a8.17 8.17 0 0 1 3.454.773l-.808 1.933c-.492-.21-.952-.384-1.38-.518a4.336 4.336 0 0 0-1.31-.202c-.79 0-1.186.213-1.186.641 0 .24.126.448.378.624.257.176.817.437 1.678.782.768.311 1.33.601 1.688.87.357.27.62.58.79.932.17.352.256.77.256 1.257Zm4.667-2.426 1.169-1.494 2.75-2.988h3.024l-3.902 4.262L29.11 32h-3.094l-2.83-3.981-1.152.922V32h-2.68V18.324h2.68v6.1l-.14 2.232h.035Zm14.053-4.667c1.16 0 2.069.454 2.725 1.363.656.902.984 2.141.984 3.717 0 1.623-.34 2.88-1.02 3.77-.673.892-1.593 1.337-2.759 1.337-1.154 0-2.06-.42-2.716-1.257h-.184L32.563 32h-2.047V18.324h2.68v3.182c0 .404-.035 1.052-.105 1.942h.105c.627-.972 1.556-1.459 2.786-1.459Zm-.86 2.145c-.663 0-1.146.205-1.451.615-.305.404-.463 1.075-.475 2.013v.29c0 1.054.156 1.81.466 2.267.316.457.815.686 1.494.686.551 0 .988-.252 1.31-.756.328-.51.492-1.248.492-2.215 0-.967-.164-1.69-.492-2.17-.328-.487-.776-.73-1.345-.73Zm6.406 6.61c0-.493.132-.865.396-1.117s.647-.378 1.151-.378c.486 0 .861.129 1.125.387.27.258.404.627.404 1.107 0 .463-.134.83-.404 1.099-.27.264-.644.395-1.125.395-.492 0-.873-.129-1.142-.386-.27-.264-.405-.633-.405-1.108Z" />
  </svg><svg fill="none" viewBox="0 0 80 80" id="m-loadsvg" xmlns="http://www.w3.org/2000/svg">
    <path d="M4 40c0 19.883 16.118 36 36 36s36-16.117 36-36C76 20.12 59.882 4 40 4c-4.649 0-9.092.881-13.172 2.486"
      stroke="#9873FF" stroke-width="8" stroke-miterlimit="10" stroke-linecap="round" />
  </svg><svg viewBox="0 0 16 16" id="mailsvg" fill="none" xmlns="http://www.w3.org/2000/svg">
    <path fill-rule="evenodd" clip-rule="evenodd"
      d="M8 16A8 8 0 1 0 8 0a8 8 0 0 0 0 16ZM4 5.75c0-.412.36-.75.8-.75h6.4c.44 0 .8.338.8.75v4.5c0 .412-.36.75-.8.75H4.8c-.44 0-.8-.338-.8-.75v-4.5Zm4.424 2.377 2.616-1.533c.1-.06.16-.162.16-.27 0-.252-.292-.401-.52-.27L8 7.625 5.32 6.054c-.228-.131-.52.018-.52.27 0 .109.06.21.16.27l2.616 1.533c.26.154.588.154.848 0Z"
      fill="#9873FF" />
  </svg><svg viewBox="0 0 12 12" id="pensvg" xmlns="http://www.w3.org/2000/svg">
    <path
      d="M0 9.5V12h2.5l7.373-7.373-2.5-2.5L0 9.5Zm11.807-6.807c.26-.26.26-.68 0-.94l-1.56-1.56a.664.664 0 0 0-.94 0l-1.22 1.22 2.5 2.5 1.22-1.22Z" />
  </svg><svg viewBox="0 0 16 16" id="personsvg" xmlns="http://www.w3.org/2000/svg">
    <path fill-rule="evenodd" clip-rule="evenodd"
      d="M8 16A8 8 0 1 0 8 0a8 8 0 0 0 0 16ZM3 8c0-2.76 2.24-5 5-5s5 2.24 5 5-2.24 5-5 5-5-2.24-5-5Zm6.5-2c0-.83-.67-1.5-1.5-1.5S6.5 5.17 6.5 6 7.17 7.5 8 7.5 9.5 6.83 9.5 6ZM5 9.99a3.6 3.6 0 0 0 6 0c-.015-.995-2.005-1.54-3-1.54-1 0-2.985.545-3 1.54Z" />
  </svg><svg viewBox="0 0 16 16" fill="none" id="phonesvg" xmlns="http://www.w3.org/2000/svg">
    <circle cx="8" cy="8" r="8" fill="#9873FF" />
    <path
      d="M11.56 9.502a5.085 5.085 0 0 1-1.569-.249.434.434 0 0 0-.449.107l-.698.876C7.587 9.636 6.41 8.502 5.782 7.2l.867-.738a.454.454 0 0 0 .107-.453 4.957 4.957 0 0 1-.25-1.569c0-.24-.2-.44-.44-.44H4.53c-.241 0-.53.107-.53.44C4 8.569 7.436 12 11.56 12c.316 0 .44-.28.44-.524V9.942c0-.24-.2-.44-.44-.44Z"
      fill="white" />
  </svg><svg viewBox="0 0 13 13" fill="none" id="r-loadsvg" xmlns="http://www.w3.org/2000/svg">
    <path d="M1 6.04a5.04 5.04 0 1 0 3.196-4.692" stroke="#F06A4D" stroke-width="2" stroke-miterlimit="10"
      stroke-linecap="round" />
  </svg><svg viewBox="0 0 17 8" id="rectanglesvg" xmlns="http://www.w3.org/2000/svg">
    <path d="m8.5 7.97 8.485-8.485H.015L8.5 7.971Z" />
  </svg><svg viewBox="0 0 12 12" id="removesvg" xmlns="http://www.w3.org/2000/svg">
    <path
      d="M6 0C2.682 0 0 2.682 0 6s2.682 6 6 6 6-2.682 6-6-2.682-6-6-6Zm0 10.8A4.806 4.806 0 0 1 1.2 6c0-2.646 2.154-4.8 4.8-4.8s4.8 2.154 4.8 4.8-2.154 4.8-4.8 4.8ZM8.154 3 6 5.154 3.846 3 3 3.846 5.154 6 3 8.154 3.846 9 6 6.846 8.154 9 9 8.154 6.846 6 9 3.846 8.154 3Z" />
  </svg><svg viewBox="0 0 16 16" id="vksvg" xmlns="http://www.w3.org/2000/svg">
    <path
      d="M8 0a8 8 0 1 0 0 16A8 8 0 0 0 8 0Zm4.058 8.865c.373.364.767.707 1.102 1.109.148.178.288.362.395.568.152.295.014.618-.25.636h-1.639c-.423.035-.76-.136-1.044-.426-.226-.23-.437-.477-.655-.715a1.533 1.533 0 0 0-.295-.263c-.224-.145-.418-.1-.546.133-.13.238-.16.5-.172.765-.018.387-.135.488-.523.506-.828.038-1.614-.087-2.345-.505-.645-.368-1.143-.888-1.578-1.477C3.66 8.048 3.013 6.788 2.43 5.493c-.13-.292-.035-.448.287-.455a45.59 45.59 0 0 1 1.605 0c.218.003.362.128.445.333.29.712.644 1.388 1.088 2.016.118.167.239.334.41.452.19.13.336.087.425-.125.057-.135.082-.279.094-.423a6.317 6.317 0 0 0-.026-1.482c-.045-.308-.219-.507-.526-.565-.156-.03-.134-.088-.057-.177.132-.155.255-.25.503-.25H8.53c.291.057.357.188.396.482l.002 2.058c-.003.113.057.45.261.525.164.054.272-.077.37-.18.444-.472.76-1.028 1.044-1.604.125-.254.233-.517.338-.78.077-.194.199-.29.418-.287l1.783.002c.053 0 .106 0 .158.01.3.051.383.18.29.474-.146.46-.43.844-.708 1.229-.298.411-.616.809-.91 1.222-.272.379-.25.569.086.897Z" />
  </svg>
</svg>